<?xml version="1.0" encoding="utf-8"?>
<!-- Generator: Adobe Illustrator 18.1.0, SVG Export Plug-In . SVG Version: 6.00 Build 0)  -->
<!DOCTYPE svg PUBLIC "-//W3C//DTD SVG 1.1//EN" "http://www.w3.org/Graphics/SVG/1.1/DTD/svg11.dtd">
<svg version="1.1" id="Layer_1" xmlns="http://www.w3.org/2000/svg" xmlns:xlink="http://www.w3.org/1999/xlink" x="0px" y="0px"
	 viewBox="488.3 344 121.9 80.7" enable-background="new 488.3 344 121.9 80.7" xml:space="preserve">
<g>
	<polygon fill="#4988A2" points="488.3,360 488.3,424.6 568.9,424.6 	"/>
	<polygon fill="#7A4198" points="545.6,424.6 610.3,350.3 610.3,424.6 	"/>
	<polygon fill="#478B60" points="488.4,424.6 520.5,344 568.6,424.6 	"/>
	<polygon fill="#135F66" points="494.9,424.6 522.3,387.3 555.1,413.7 545.6,424.6 	"/>
	<polygon fill="#2B7B82" points="494.9,424.6 488.4,424.6 507.9,375.7 522.3,387.3 	"/>
	<polygon fill="#194A7F" points="555.1,413.7 545.6,424.6 568.7,424.6 	"/>
	<polyline fill="#5E2B7C" points="559.2,409 555.1,413.7 568.7,424.6 559.2,409 	"/>
	<polygon fill="#7A2980" points="610.3,424.6 568.7,424.6 559.2,409 583.4,381.2 	"/>
	<polygon fill="#456630" points="522.3,387.3 535.8,369.6 559.2,409 555.1,413.7 	"/>
	<polygon fill="#E77A45" points="535.8,369.6 542.7,360 558.8,382.6 574.6,367.1 583.4,381.2 559.2,409 	"/>
</g>
</svg>
