<svg xmlns="http://www.w3.org/2000/svg" viewBox="0 0 113.39 82.87"><defs><style>.cls-1{fill:#00c06e;}</style></defs><title>mark-green</title><g id="Layer_2" data-name="Layer 2"><g id="Layer_1-2" data-name="Layer 1"><path class="cls-1" d="M99,19.36c-8.39,0-14.41,7.4-20.59,15.66C74.55,17.5,70.28,0,56.69,0S38.83,17.5,35,35c-6.18-8.25-12.2-15.66-20.6-15.66C9.05,19.36,0,23,0,36.62L.06,61.4C.06,74.77,7.2,78,11.48,79.16h0c7.38,1.92,25.16,3.7,45.17,3.7s37.8-1.78,45.18-3.7h0c4.28-1.12,11.42-4.39,11.42-17.76l.07-24.78c0-13.63-9-17.26-14.4-17.26M56.69,7.72c8.15,0,11.25,16.07,15.57,35.34-4.74,5.83-9.77,10.55-15.57,10.55S45.87,48.89,41.12,43.06C45.17,25,48.29,7.72,56.69,7.72M7.78,61.4,7.72,36.62c0-8.61,4.67-9.54,6.67-9.54,5.93,0,12.29,9.89,18.37,17.83-4.3,18-8.84,29-19.56,26.72-2.79-.76-5.42-2.53-5.42-10.23m21,12.53c4.74-5.16,7.77-13.2,10.08-21.72,5,5.19,10.69,9.12,17.79,9.12s12.83-3.93,17.8-9.12c2.3,8.51,5.32,16.56,10.07,21.72-8.29.76-18.28,1.21-27.87,1.21s-19.58-.45-27.87-1.21M105.6,61.4c0,7.7-2.63,9.47-5.42,10.23C89.45,73.9,84.92,62.92,80.63,44.91,86.7,37,93.07,27.08,99,27.08c2,0,6.67.93,6.67,9.54Z"/></g></g></svg>